Coordinates
version=1
nRows=10
nColumns=22
inDegrees=yes

Units are S.I. units (second, meters, Newtons, ...)
If the header above contains a line with 'inDegrees', this indicates whether rotational values are in degrees (yes) or radians (no).

endheader
time	pelvis_tilt	pelvis_list	pelvis_rotation	pelvis_tx	pelvis_ty	pelvis_tz	hip_flexion_r	hip_adduction_r	hip_rotation_r	knee_angle_r	ankle_angle_r	subtalar_angle_r	hip_flexion_l	hip_adduction_l	hip_rotation_l	knee_angle_l	ankle_angle_l	subtalar_angle_l	lumbar_extension	lumbar_bending	lumbar_rotation
      1.74000000	     -2.62340096	      0.84118003	    137.54300302	     -0.16878856	      0.92131731	      0.79584022	      6.46274805	      8.61081938	    -10.80676327	    -20.55881666	      9.04259876	    -10.13948869	     11.18102467	     -9.52002516	     -5.79298685	    -63.70127741	     -3.28860071	      9.72360778	     -6.94655270	     -2.12832816	      1.00488635
      1.75000000	     -2.72915485	      0.85347191	    136.44094075	     -0.17287630	      0.92188295	      0.78900351	      5.49174173	      8.74500895	     -9.78628284	    -20.01614853	      9.17249548	    -10.12657613	     12.20129814	     -9.72310434	     -5.67023577	    -62.91170205	     -1.90738010	      9.32345657	     -7.03477152	     -2.30837712	      1.41874500
      1.76000000	     -2.83661163	      0.88752663	    135.37518403	     -0.17692881	      0.92238027	      0.78227456	      4.51896396	      8.85233857	     -8.81786207	    -19.49464085	      9.29554365	    -10.12573629	     13.14687000	     -9.91752484	     -5.50161791	    -61.88356087	     -0.65816853	      8.68312814	     -7.15988160	     -2.46933798	      1.79376539
      1.77000000	     -2.88084507	      0.91451201	    134.29346646	     -0.18089650	      0.92270120	      0.77556343	      3.60875247	      8.97560839	     -7.79907308	    -18.98638618	      9.41433734	    -10.11411705	     14.07355202	    -10.15557707	     -5.35217102	    -60.62984675	      0.37232480	      8.12232701	     -7.23408926	     -2.58913643	      2.17456759
      1.78000000	     -2.90616998	      0.94720767	    133.22105747	     -0.18482879	      0.92291193	      0.76891072	      2.73015580	      9.08131063	     -6.80208499	    -18.51832524	      9.53626491	    -10.10374914	     14.93006907	    -10.39737620	     -5.20132323	    -59.14164950	      1.25563248	      7.43286698	     -7.30949607	     -2.68908225	      2.54459333
      1.79000000	     -2.90861517	      0.98275022	    132.14562155	     -0.18871995	      0.92300107	      0.76232973	      1.89599944	      9.17308999	     -5.79718366	    -18.10615561	      9.66220716	    -10.08942532	     15.71471259	    -10.64063118	     -5.05883227	    -57.42494273	      2.00922425	      6.63990265	     -7.38302591	     -2.76464038	      2.92537967
      1.80000000	     -2.87627953	      1.01274326	    131.05050252	     -0.19257636	      0.92294712	      0.75579103	      1.11456763	      9.25683141	     -4.77130760	    -17.74103367	      9.80315410	    -10.06328952	     16.42992936	    -10.89644238	     -4.95287038	    -55.48030141	      2.63952914	      5.86042853	     -7.43410576	     -2.81028972	      3.32120397
      1.81000000	     -2.81539764	      1.04180000	    129.93822627	     -0.19641500	      0.92275679	      0.74928720	      0.37640759	      9.33450756	     -3.71502824	    -17.42563810	      9.96093217	    -10.02398708	     17.06341343	    -11.15696064	     -4.87330528	    -53.31440295	      3.13119711	      5.16171269	     -7.46852517	     -2.82792971	      3.73828940
      1.82000000	     -2.74028241	      1.07801619	    128.82418191	     -0.20028461	      0.92245149	      0.74284363	     -0.33306967	      9.39659256	     -2.66153169	    -17.16371838	     10.14253322	     -9.97205804	     17.59779318	    -11.40253735	     -4.79749708	    -50.93158806	      3.51954907	      4.54406438	     -7.50765785	     -2.81774189	      4.16218445
      1.83000000	     -2.65223316	      1.12134436	    127.72240209	     -0.20422839	      0.92202709	      0.73646109	     -1.01463360	      9.44268014	     -1.63141675	    -16.95737986	     10.35567402	     -9.90709697	     18.03517630	    -11.62575461	     -4.71303404	    -48.34473483	      3.80916927	      4.05157330	     -7.54819605	     -2.77782726	      4.57947413
